<mxfile host="65bd71144e">
    <diagram id="rfjSN9cdk0lPBWMgBJ06" name="Page-1">
        <mxGraphModel dx="1844" dy="890" grid="1" gridSize="10" guides="1" tooltips="1" connect="1" arrows="1" fold="1" page="1" pageScale="1" pageWidth="850" pageHeight="1100" math="0" shadow="0">
            <root>
                <mxCell id="0"/>
                <mxCell id="1" parent="0"/>
                <mxCell id="zSOSA6TjUo3DJ6Rty31Y-2" value="" style="rounded=0;whiteSpace=wrap;html=1;" parent="1" vertex="1">
                    <mxGeometry x="140" y="90" width="550" height="430" as="geometry"/>
                </mxCell>
                <mxCell id="zSOSA6TjUo3DJ6Rty31Y-4" value="Cashier" style="shape=umlActor;verticalLabelPosition=bottom;verticalAlign=top;html=1;outlineConnect=0;" parent="1" vertex="1">
                    <mxGeometry x="20" y="410" width="30" height="60" as="geometry"/>
                </mxCell>
                <mxCell id="zSOSA6TjUo3DJ6Rty31Y-6" value="Barista" style="shape=umlActor;verticalLabelPosition=bottom;verticalAlign=top;html=1;outlineConnect=0;" parent="1" vertex="1">
                    <mxGeometry x="760" y="200" width="30" height="60" as="geometry"/>
                </mxCell>
                <mxCell id="zSOSA6TjUo3DJ6Rty31Y-7" value="Log in" style="ellipse;whiteSpace=wrap;html=1;" parent="1" vertex="1">
                    <mxGeometry x="350" y="150" width="140" height="70" as="geometry"/>
                </mxCell>
                <mxCell id="zSOSA6TjUo3DJ6Rty31Y-11" value="Enter Time" style="ellipse;whiteSpace=wrap;html=1;" parent="1" vertex="1">
                    <mxGeometry x="300" y="320" width="140" height="70" as="geometry"/>
                </mxCell>
                <mxCell id="zSOSA6TjUo3DJ6Rty31Y-19" value="Create Account" style="ellipse;whiteSpace=wrap;html=1;" parent="1" vertex="1">
                    <mxGeometry x="150" y="230" width="140" height="70" as="geometry"/>
                </mxCell>
                <mxCell id="zSOSA6TjUo3DJ6Rty31Y-20" value="Dan's Frappuccino Hell System - Time Tracking" style="text;html=1;strokeColor=none;fillColor=none;align=center;verticalAlign=middle;whiteSpace=wrap;rounded=0;" parent="1" vertex="1">
                    <mxGeometry x="360" y="110" width="130" height="30" as="geometry"/>
                </mxCell>
                <mxCell id="zSOSA6TjUo3DJ6Rty31Y-27" value="" style="endArrow=classic;html=1;rounded=0;" parent="1" source="zSOSA6TjUo3DJ6Rty31Y-4" target="zSOSA6TjUo3DJ6Rty31Y-11" edge="1">
                    <mxGeometry width="50" height="50" relative="1" as="geometry">
                        <mxPoint x="460" y="600" as="sourcePoint"/>
                        <mxPoint x="510" y="550" as="targetPoint"/>
                    </mxGeometry>
                </mxCell>
                <mxCell id="zSOSA6TjUo3DJ6Rty31Y-30" value="" style="endArrow=classic;html=1;rounded=0;" parent="1" source="zSOSA6TjUo3DJ6Rty31Y-6" target="zSOSA6TjUo3DJ6Rty31Y-11" edge="1">
                    <mxGeometry width="50" height="50" relative="1" as="geometry">
                        <mxPoint x="550" y="590" as="sourcePoint"/>
                        <mxPoint x="600" y="540" as="targetPoint"/>
                    </mxGeometry>
                </mxCell>
                <mxCell id="zSOSA6TjUo3DJ6Rty31Y-37" value="&amp;lt;&amp;lt;extends&amp;gt;&amp;gt;" style="endArrow=open;endSize=12;dashed=1;html=1;rounded=0;" parent="1" source="zSOSA6TjUo3DJ6Rty31Y-19" target="zSOSA6TjUo3DJ6Rty31Y-7" edge="1">
                    <mxGeometry width="160" relative="1" as="geometry">
                        <mxPoint x="430.4711687278976" y="490.52500241087444" as="sourcePoint"/>
                        <mxPoint x="419.5369524269768" y="459.4830138310292" as="targetPoint"/>
                        <Array as="points"/>
                    </mxGeometry>
                </mxCell>
                <mxCell id="zSOSA6TjUo3DJ6Rty31Y-43" value="&amp;lt;&amp;lt;include&amp;gt;&amp;gt;" style="endArrow=open;endSize=12;dashed=1;html=1;rounded=0;" parent="1" source="zSOSA6TjUo3DJ6Rty31Y-11" target="zSOSA6TjUo3DJ6Rty31Y-7" edge="1">
                    <mxGeometry width="160" relative="1" as="geometry">
                        <mxPoint x="565.4104479979155" y="238.6015232257971" as="sourcePoint"/>
                        <mxPoint x="464.59999999998263" y="411.4000000000299" as="targetPoint"/>
                        <Array as="points"/>
                    </mxGeometry>
                </mxCell>
                <mxCell id="4" value="Delete Time" style="ellipse;whiteSpace=wrap;html=1;" parent="1" vertex="1">
                    <mxGeometry x="490" y="420" width="140" height="70" as="geometry"/>
                </mxCell>
                <mxCell id="5" value="&amp;lt;&amp;lt;extends&amp;gt;&amp;gt;" style="endArrow=open;endSize=12;dashed=1;html=1;rounded=0;exitX=0;exitY=0;exitDx=0;exitDy=0;" parent="1" source="4" target="zSOSA6TjUo3DJ6Rty31Y-11" edge="1">
                    <mxGeometry width="160" relative="1" as="geometry">
                        <mxPoint x="284.6608166610122" y="253.13567333559513" as="sourcePoint"/>
                        <mxPoint x="375.3391833389878" y="216.86432666440487" as="targetPoint"/>
                        <Array as="points"/>
                    </mxGeometry>
                </mxCell>
            </root>
        </mxGraphModel>
    </diagram>
</mxfile>